<svg xmlns="http://www.w3.org/2000/svg" viewBox="0 0 400 400" width="400" height="400">
  <rect width="400" height="400" fill="#0f172a" />
  <circle cx="40" cy="40" r="12.7" fill="#38bdf8" opacity="0.30" />
  <circle cx="80" cy="40" r="6.0" fill="#38bdf8" opacity="0.30" />
  <circle cx="120" cy="40" r="9.3" fill="#38bdf8" opacity="0.30" />
  <circle cx="160" cy="40" r="12.7" fill="#38bdf8" opacity="0.30" />
  <circle cx="200" cy="40" r="6.0" fill="#38bdf8" opacity="0.30" />
  <circle cx="240" cy="40" r="9.3" fill="#38bdf8" opacity="0.30" />
  <circle cx="280" cy="40" r="12.7" fill="#38bdf8" opacity="0.30" />
  <circle cx="320" cy="40" r="6.0" fill="#38bdf8" opacity="0.30" />
  <circle cx="360" cy="40" r="9.3" fill="#38bdf8" opacity="0.30" />
  <circle cx="40" cy="80" r="6.0" fill="#38bdf8" opacity="0.30" />
  <circle cx="80" cy="80" r="9.3" fill="#38bdf8" opacity="0.30" />
  <circle cx="120" cy="80" r="12.7" fill="#38bdf8" opacity="0.30" />
  <circle cx="160" cy="80" r="6.0" fill="#38bdf8" opacity="0.30" />
  <circle cx="200" cy="80" r="9.3" fill="#38bdf8" opacity="0.30" />
  <circle cx="240" cy="80" r="12.7" fill="#38bdf8" opacity="0.30" />
  <circle cx="280" cy="80" r="6.0" fill="#38bdf8" opacity="0.30" />
  <circle cx="320" cy="80" r="9.3" fill="#38bdf8" opacity="0.30" />
  <circle cx="360" cy="80" r="12.7" fill="#38bdf8" opacity="0.30" />
  <circle cx="40" cy="120" r="9.3" fill="#38bdf8" opacity="0.30" />
  <circle cx="80" cy="120" r="12.7" fill="#38bdf8" opacity="0.30" />
  <circle cx="120" cy="120" r="6.0" fill="#38bdf8" opacity="0.30" />
  <circle cx="160" cy="120" r="9.3" fill="#38bdf8" opacity="0.30" />
  <circle cx="200" cy="120" r="12.7" fill="#38bdf8" opacity="0.30" />
  <circle cx="240" cy="120" r="6.0" fill="#38bdf8" opacity="0.30" />
  <circle cx="280" cy="120" r="9.3" fill="#38bdf8" opacity="0.30" />
  <circle cx="320" cy="120" r="12.7" fill="#38bdf8" opacity="0.30" />
  <circle cx="360" cy="120" r="6.0" fill="#38bdf8" opacity="0.30" />
  <circle cx="40" cy="160" r="12.7" fill="#38bdf8" opacity="0.30" />
  <circle cx="80" cy="160" r="6.0" fill="#38bdf8" opacity="0.30" />
  <circle cx="120" cy="160" r="9.3" fill="#38bdf8" opacity="0.30" />
  <circle cx="160" cy="160" r="12.7" fill="#38bdf8" opacity="0.30" />
  <circle cx="200" cy="160" r="6.0" fill="#38bdf8" opacity="0.30" />
  <circle cx="240" cy="160" r="9.3" fill="#38bdf8" opacity="0.30" />
  <circle cx="280" cy="160" r="12.7" fill="#38bdf8" opacity="0.30" />
  <circle cx="320" cy="160" r="6.0" fill="#38bdf8" opacity="0.30" />
  <circle cx="360" cy="160" r="9.3" fill="#38bdf8" opacity="0.30" />
  <circle cx="40" cy="200" r="6.0" fill="#38bdf8" opacity="0.30" />
  <circle cx="80" cy="200" r="9.3" fill="#38bdf8" opacity="0.30" />
  <circle cx="120" cy="200" r="12.7" fill="#38bdf8" opacity="0.30" />
  <circle cx="160" cy="200" r="6.0" fill="#38bdf8" opacity="0.30" />
  <circle cx="200" cy="200" r="9.3" fill="#38bdf8" opacity="0.30" />
  <circle cx="240" cy="200" r="12.7" fill="#38bdf8" opacity="0.30" />
  <circle cx="280" cy="200" r="6.0" fill="#38bdf8" opacity="0.30" />
  <circle cx="320" cy="200" r="9.3" fill="#38bdf8" opacity="0.30" />
  <circle cx="360" cy="200" r="12.7" fill="#38bdf8" opacity="0.30" />
  <circle cx="40" cy="240" r="9.3" fill="#38bdf8" opacity="0.30" />
  <circle cx="80" cy="240" r="12.7" fill="#38bdf8" opacity="0.30" />
  <circle cx="120" cy="240" r="6.0" fill="#38bdf8" opacity="0.30" />
  <circle cx="160" cy="240" r="9.3" fill="#38bdf8" opacity="0.30" />
  <circle cx="200" cy="240" r="12.7" fill="#38bdf8" opacity="0.30" />
  <circle cx="240" cy="240" r="6.0" fill="#38bdf8" opacity="0.30" />
  <circle cx="280" cy="240" r="9.3" fill="#38bdf8" opacity="0.30" />
  <circle cx="320" cy="240" r="12.7" fill="#38bdf8" opacity="0.30" />
  <circle cx="360" cy="240" r="6.0" fill="#38bdf8" opacity="0.30" />
  <circle cx="40" cy="280" r="12.7" fill="#38bdf8" opacity="0.30" />
  <circle cx="80" cy="280" r="6.0" fill="#38bdf8" opacity="0.30" />
  <circle cx="120" cy="280" r="9.3" fill="#38bdf8" opacity="0.30" />
  <circle cx="160" cy="280" r="12.7" fill="#38bdf8" opacity="0.30" />
  <circle cx="200" cy="280" r="6.0" fill="#38bdf8" opacity="0.30" />
  <circle cx="240" cy="280" r="9.3" fill="#38bdf8" opacity="0.30" />
  <circle cx="280" cy="280" r="12.7" fill="#38bdf8" opacity="0.30" />
  <circle cx="320" cy="280" r="6.0" fill="#38bdf8" opacity="0.30" />
  <circle cx="360" cy="280" r="9.3" fill="#38bdf8" opacity="0.30" />
  <circle cx="40" cy="320" r="6.0" fill="#38bdf8" opacity="0.30" />
  <circle cx="80" cy="320" r="9.3" fill="#38bdf8" opacity="0.30" />
  <circle cx="120" cy="320" r="12.7" fill="#38bdf8" opacity="0.30" />
  <circle cx="160" cy="320" r="6.0" fill="#38bdf8" opacity="0.30" />
  <circle cx="200" cy="320" r="9.3" fill="#38bdf8" opacity="0.30" />
  <circle cx="240" cy="320" r="12.7" fill="#38bdf8" opacity="0.30" />
  <circle cx="280" cy="320" r="6.0" fill="#38bdf8" opacity="0.30" />
  <circle cx="320" cy="320" r="9.3" fill="#38bdf8" opacity="0.30" />
  <circle cx="360" cy="320" r="12.7" fill="#38bdf8" opacity="0.30" />
  <circle cx="40" cy="360" r="9.3" fill="#38bdf8" opacity="0.30" />
  <circle cx="80" cy="360" r="12.7" fill="#38bdf8" opacity="0.30" />
  <circle cx="120" cy="360" r="6.0" fill="#38bdf8" opacity="0.30" />
  <circle cx="160" cy="360" r="9.3" fill="#38bdf8" opacity="0.30" />
  <circle cx="200" cy="360" r="12.7" fill="#38bdf8" opacity="0.30" />
  <circle cx="240" cy="360" r="6.0" fill="#38bdf8" opacity="0.30" />
  <circle cx="280" cy="360" r="9.3" fill="#38bdf8" opacity="0.30" />
  <circle cx="320" cy="360" r="12.7" fill="#38bdf8" opacity="0.30" />
  <circle cx="360" cy="360" r="6.0" fill="#38bdf8" opacity="0.30" />
  <text x="200" y="385" text-anchor="middle" font-family="ui-sans-serif,system-ui" font-size="18" fill="#e2e8f0">dots</text>
</svg>